<svg width="38" height="48" viewBox="0 0 38 48" xmlns="http://www.w3.org/2000/svg" xmlns:xlink="http://www.w3.org/1999/xlink"><title>doc</title><defs><path d="M36 38V13H25V2H2v44h14v2h11H0V0h27.007L38 11.014V48H27h11V38h-2zM27.007 3.019v7.995h8.013L27.007 3.02zM7.909 14h8.182c.502 0 .909-.447.909-1 0-.553-.407-1-.91-1H7.91c-.503 0-.91.447-.91 1 0 .553.407 1 .91 1zm0 6h21.182c.502 0 .909-.447.909-1 0-.553-.407-1-.91-1H7.91c-.503 0-.91.447-.91 1 0 .553.407 1 .91 1zm0 6h21.182c.502 0 .909-.447.909-1 0-.553-.407-1-.91-1H7.91c-.503 0-.91.447-.91 1 0 .553.407 1 .91 1zm0 6h21.182c.502 0 .909-.447.909-1 0-.553-.407-1-.91-1H7.91c-.503 0-.91.447-.91 1 0 .553.407 1 .91 1zm10.048 8.3h2.673c.931 0 1.661.28 2.189.842.528.56.792 1.406.792 2.535v.88c0 1.159-.264 2.022-.792 2.59-.528.569-1.258.853-2.189.853h-2.673v-7.7zm2.673 6.578c.264 0 .499-.042.704-.127.205-.084.38-.218.523-.401a1.96 1.96 0 0 0 .33-.72c.077-.298.115-.655.115-1.073v-.88c0-.807-.148-1.386-.445-1.738-.298-.352-.706-.528-1.227-.528h-1.364v5.467h1.364zm7.26 1.21c-.462 0-.878-.071-1.248-.215a2.336 2.336 0 0 1-.941-.66 3.002 3.002 0 0 1-.588-1.121c-.136-.452-.204-.989-.204-1.612v-.88c0-1.13.264-1.976.792-2.541s1.258-.847 2.189-.847 1.661.282 2.189.847.792 1.412.792 2.541v.88c0 .623-.068 1.16-.203 1.612-.136.45-.332.824-.589 1.122-.257.297-.57.516-.94.66-.37.143-.787.214-1.249.214zm0-1.144c.264 0 .499-.042.704-.127a1.22 1.22 0 0 0 .522-.412c.144-.19.253-.444.33-.759.078-.315.116-.704.116-1.166v-.88c0-.807-.148-1.382-.446-1.727-.297-.345-.705-.517-1.226-.517-.52 0-.93.172-1.227.517-.297.345-.445.92-.445 1.727v.88c0 .462.038.85.116 1.166.077.315.186.568.33.759.143.19.317.328.522.413.205.084.44.126.704.126zm7.26 1.144c-.462 0-.878-.071-1.248-.215a2.336 2.336 0 0 1-.941-.66c-.257-.297-.453-.672-.588-1.127-.136-.455-.204-.994-.204-1.617v-.88c0-1.122.264-1.965.792-2.53.528-.565 1.258-.847 2.189-.847.858 0 1.523.207 1.997.621.473.415.768 1.018.885 1.81h-1.32c-.103-.44-.273-.764-.512-.974-.238-.209-.588-.313-1.05-.313-.52 0-.93.172-1.227.517-.297.345-.445.917-.445 1.716v.88c0 .462.038.85.115 1.166.078.315.187.57.33.765.144.194.318.333.523.418.205.084.44.126.704.126.47 0 .82-.108 1.05-.325.232-.216.402-.551.512-1.006h1.32c-.125.843-.425 1.467-.902 1.87-.477.403-1.137.605-1.98.605z" id="a"/></defs><g fill="none" fill-rule="evenodd"><mask id="b" fill="#fff"><use xlink:href="#a"/></mask><use fill="#1B39BA" fill-rule="nonzero" xlink:href="#a"/><path fill="#3881D9" mask="url(#b)" d="M16 38h22v10H16z"/></g></svg>