<svg width="38" height="48" viewBox="0 0 38 48" xmlns="http://www.w3.org/2000/svg"><title>Shape</title><path d="M27.007 0L38 11.014V48H0V0h27.007zm0 3.019v7.995h8.013L27.007 3.02zM2 46h34V13H25V2H2v44zm5.91-32h8.18c.503 0 .91-.447.91-1 0-.553-.407-1-.91-1H7.91c-.503 0-.91.447-.91 1 0 .553.407 1 .91 1zm0 6h21.18c.503 0 .91-.447.91-1 0-.553-.407-1-.91-1H7.91c-.503 0-.91.447-.91 1 0 .553.407 1 .91 1zm0 6h21.18c.503 0 .91-.447.91-1 0-.553-.407-1-.91-1H7.91c-.503 0-.91.447-.91 1 0 .553.407 1 .91 1zm0 6h21.18c.503 0 .91-.447.91-1 0-.553-.407-1-.91-1H7.91c-.503 0-.91.447-.91 1 0 .553.407 1 .91 1z" fill="#1B39BA"/></svg>