<svg width="24" height="24" viewBox="0 0 24 24" xmlns="http://www.w3.org/2000/svg" xmlns:xlink="http://www.w3.org/1999/xlink"><title>89FBD854-A7D7-4B84-9F72-4B1A7DD4D55B</title><defs><path d="M14 11H9v5h5v-5zM13 0v2H5V0H3v2H2C.89 2 .01 2.9.01 4L0 18a2 2 0 0 0 2 2h14c1.1 0 2-.9 2-2V4c0-1.1-.9-2-2-2h-1V0h-2zm3 18H2V7h14v11z" id="a"/></defs><g transform="translate(3 2)" fill="none" fill-rule="evenodd"><mask id="b" fill="#fff"><use xlink:href="#a"/></mask><use fill="#40b550" fill-rule="nonzero" xlink:href="#a"/><g mask="url(#b)" fill="#40b550"><rect width="21" height="22" rx="4" transform="translate(-1.286 -.8)"/></g></g></svg>