<svg width="24" height="24" viewBox="0 0 24 24" xmlns="http://www.w3.org/2000/svg" xmlns:xlink="http://www.w3.org/1999/xlink"><title>A704E050-A506-4C0B-AEAB-D620B3637C1B</title><defs><path d="M5 0h8a5 5 0 0 1 5 5v8a5 5 0 0 1-5 5H5a5 5 0 0 1-5-5V5a5 5 0 0 1 5-5zm.5 1.5a4 4 0 0 0-4 4v7a4 4 0 0 0 4 4h7a4 4 0 0 0 4-4v-7a4 4 0 0 0-4-4h-7zM14 5a1 1 0 1 1 0-2 1 1 0 0 1 0 2zm-5 8.5a4.5 4.5 0 1 1 0-9 4.5 4.5 0 0 1 0 9zM9 12a3 3 0 1 0 0-6 3 3 0 0 0 0 6z" id="a"/></defs><g transform="translate(3 3)" fill="#fff" fill-rule="evenodd"><mask id="b"><use xlink:href="#a"/></mask><use xlink:href="#a"/><g mask="url(#b)"><rect width="24" height="24" rx="4" transform="translate(-3 -3)"/></g></g></svg>