<svg width="24" height="24" viewBox="0 0 24 24" xmlns="http://www.w3.org/2000/svg" xmlns:xlink="http://www.w3.org/1999/xlink"><title>D760EDE1-8EE3-4531-AF21-17EF63382DD9</title><defs><path d="M11.162 12.371l3.482-3.715a.72.72 0 0 1 .627-.227.826.826 0 0 1 .558.219l1.485 1.39a.72.72 0 0 1 .225.65.842.842 0 0 1-.154.893l-3.512 3.748a.734.734 0 0 1-.437.228l-2.041.428a.727.727 0 0 1-.675-.22.836.836 0 0 1-.206-.719l.41-2.23a.812.812 0 0 1 .238-.445zm1.19.994l-.151.82.775-.162 2.958-3.157-.661-.618-2.921 3.117zM1.5 2.85V12c0 .44.337.8.75.8H9c.414 0 .75.358.75.8 0 .442-.336.8-.75.8H2.25C1.01 14.4 0 13.323 0 12V2.4C0 1.077 1.01 0 2.25 0h13.5C16.99 0 18 1.077 18 2.4v4c0 .442-.336.8-.75.8s-.75-.358-.75-.8V2.851l-7.006 6.55A.722.722 0 0 1 9 9.6a.722.722 0 0 1-.494-.198L1.5 2.85zm.938-1.25L9 7.736 15.562 1.6H2.438z" id="a"/></defs><g transform="translate(3 4)" fill="#fff" fill-rule="evenodd"><mask id="b"><use xlink:href="#a"/></mask><use xlink:href="#a"/><g mask="url(#b)"><rect width="32" height="25" rx="4" transform="translate(-7 -4)"/></g></g></svg>