<svg width="24" height="24" viewBox="0 0 24 24" xmlns="http://www.w3.org/2000/svg" xmlns:xlink="http://www.w3.org/1999/xlink"><title>Elements / Icons / S / Mail</title><defs><path d="M14.162 16.371l3.482-3.715a.72.72 0 0 1 .627-.227.826.826 0 0 1 .558.219l1.485 1.39a.72.72 0 0 1 .225.65.842.842 0 0 1-.154.893l-3.512 3.748a.734.734 0 0 1-.437.228l-2.041.428a.727.727 0 0 1-.675-.22.836.836 0 0 1-.206-.719l.41-2.23a.812.812 0 0 1 .238-.445zm1.19.994l-.151.82.775-.162 2.958-3.157-.661-.618-2.921 3.117zM4.5 6.85V16c0 .44.337.8.75.8H12c.414 0 .75.358.75.8 0 .442-.336.8-.75.8H5.25C4.01 18.4 3 17.323 3 16V6.4C3 5.077 4.01 4 5.25 4h13.5C19.99 4 21 5.077 21 6.4v4c0 .442-.336.8-.75.8s-.75-.358-.75-.8V6.851l-7.006 6.55A.722.722 0 0 1 12 13.6a.722.722 0 0 1-.494-.198L4.5 6.85zm.938-1.25L12 11.736 18.562 5.6H5.438z" id="a"/></defs><use fill="#fff" xlink:href="#a" fill-rule="evenodd"/></svg>