<svg width="38" height="48" xmlns="http://www.w3.org/2000/svg" xmlns:xlink="http://www.w3.org/1999/xlink"><defs><path d="M36 38V13H25V2H2v44h14v2h11H0V0h27.007L38 11.014V48H27h11V38h-2zM27.007 3.019v7.995h8.013L27.007 3.02zM7.909 14h8.182c.502 0 .909-.447.909-1 0-.553-.407-1-.91-1H7.91c-.503 0-.91.447-.91 1 0 .553.407 1 .91 1zm0 6h21.182c.502 0 .909-.447.909-1 0-.553-.407-1-.91-1H7.91c-.503 0-.91.447-.91 1 0 .553.407 1 .91 1zm0 6h21.182c.502 0 .909-.447.909-1 0-.553-.407-1-.91-1H7.91c-.503 0-.91.447-.91 1 0 .553.407 1 .91 1zm0 6h21.182c.502 0 .909-.447.909-1 0-.553-.407-1-.91-1H7.91c-.503 0-.91.447-.91 1 0 .553.407 1 .91 1zM19 40h2.706c.975 0 1.707.225 2.195.676.487.452.731 1.062.731 1.832 0 .777-.244 1.391-.732 1.842-.487.452-1.219.677-2.194.677h-1.397V47.7H19V40zm2.706 3.916c.565 0 .973-.12 1.227-.357.253-.239.379-.589.379-1.051 0-.455-.126-.801-.38-1.04-.253-.238-.661-.357-1.226-.357h-1.397v2.805h1.397zM26.04 40h2.673c.931 0 1.661.28 2.189.842.528.56.792 1.406.792 2.535v.88c0 1.159-.264 2.022-.792 2.59-.528.569-1.258.853-2.189.853H26.04V40zm2.673 6.578c.264 0 .499-.042.704-.127.205-.084.38-.218.522-.401a1.96 1.96 0 0 0 .33-.72c.078-.298.116-.655.116-1.073v-.88c0-.807-.148-1.386-.446-1.738-.297-.352-.705-.528-1.226-.528h-1.364v5.467h1.364zM33.3 40H38v1.111h-3.443v2.178h3.073v1.122h-3.073V47.7H33.3V40z" id="a"/></defs><g fill="none" fill-rule="evenodd"><mask id="b" fill="#fff"><use xlink:href="#a"/></mask><use fill="#1B39BA" fill-rule="nonzero" xlink:href="#a"/><path fill="#C12D2D" mask="url(#b)" d="M16 38h22v10H16z"/></g></svg>