<svg width="24" height="24" viewBox="0 0 24 24" xmlns="http://www.w3.org/2000/svg" xmlns:xlink="http://www.w3.org/1999/xlink"><title>D2CB9124-FC58-4CB7-937E-1C3D6CA57116</title><defs><path d="M16.556 1.424C15.417.286 14.14-.28 13.676.141l-6.39 5.723a2.994 2.994 0 0 0-4.088.13 1.01 1.01 0 0 0 0 1.427l2.895 2.895-5.95 6.715a.57.57 0 0 0 .806.805l6.707-5.957.288.288 1.491 1.492 1.115 1.114a1.01 1.01 0 0 0 1.427 0 2.995 2.995 0 0 0 .13-4.088l5.7-6.35c.47-.46-.1-1.759-1.251-2.91z" id="a"/></defs><g transform="translate(3 3)" fill="none" fill-rule="evenodd"><mask id="b" fill="#fff"><use xlink:href="#a"/></mask><use fill="#40b550" fill-rule="nonzero" xlink:href="#a"/><g mask="url(#b)" fill="#40b550"><rect width="24" height="24" rx="4" transform="translate(-3 -3)"/></g></g></svg>