<?xml version="1.0" encoding="UTF-8"?>
<svg width="38px" height="48px" viewBox="0 0 38 48" version="1.1" xmlns="http://www.w3.org/2000/svg" xmlns:xlink="http://www.w3.org/1999/xlink">
    <!-- Generator: Sketch 49.1 (51147) - http://www.bohemiancoding.com/sketch -->
    <title>ppt</title>
    <desc>Created with Sketch.</desc>
    <defs>
        <path d="M36,38 L36,13 L25,13 L25,2 L2,2 L2,46 L16,46 L16,48 L27,48 L0,48 L0,0 L27.006897,0 L38,11.0142212 L38,48 L27,48 L38,48 L38,38 L36,38 Z M27.006897,3.0189209 L27.006897,11.0142212 L35.0204468,11.0142212 L27.006897,3.0189209 Z M7.90909091,14 L16.0909091,14 C16.5927273,14 17,13.553 17,13 C17,12.447 16.5927273,12 16.0909091,12 L7.90909091,12 C7.40727273,12 7,12.447 7,13 C7,13.553 7.40727273,14 7.90909091,14 Z M7.90909091,20 L29.0909091,20 C29.5927273,20 30,19.553 30,19 C30,18.447 29.5927273,18 29.0909091,18 L7.90909091,18 C7.40727273,18 7,18.447 7,19 C7,19.553 7.40727273,20 7.90909091,20 Z M7.90909091,26 L29.0909091,26 C29.5927273,26 30,25.553 30,25 C30,24.447 29.5927273,24 29.0909091,24 L7.90909091,24 C7.40727273,24 7,24.447 7,25 C7,25.553 7.40727273,26 7.90909091,26 Z M7.90909091,32 L29.0909091,32 C29.5927273,32 30,31.553 30,31 C30,30.447 29.5927273,30 29.0909091,30 L7.90909091,30 C7.40727273,30 7,30.447 7,31 C7,31.553 7.40727273,32 7.90909091,32 Z M19,40 L21.706,40 C22.6813382,40 23.4128309,40.2254977 23.9005,40.6765 C24.3881691,41.1275023 24.632,41.7379962 24.632,42.508 C24.632,43.2853372 24.3881691,43.8994977 23.9005,44.3505 C23.4128309,44.8015023 22.6813382,45.027 21.706,45.027 L20.309,45.027 L20.309,47.7 L19,47.7 L19,40 Z M21.706,43.916 C22.2706695,43.916 22.6794987,43.7968345 22.9325,43.5585 C23.1855013,43.3201655 23.312,42.9700023 23.312,42.508 C23.312,42.0533311 23.1855013,41.7068345 22.9325,41.4685 C22.6794987,41.2301655 22.2706695,41.111 21.706,41.111 L20.309,41.111 L20.309,43.916 L21.706,43.916 Z M26.04,40 L28.746,40 C29.7213382,40 30.4528309,40.2254977 30.9405,40.6765 C31.4281691,41.1275023 31.672,41.7379962 31.672,42.508 C31.672,43.2853372 31.4281691,43.8994977 30.9405,44.3505 C30.4528309,44.8015023 29.7213382,45.027 28.746,45.027 L27.349,45.027 L27.349,47.7 L26.04,47.7 L26.04,40 Z M28.746,43.916 C29.3106695,43.916 29.7194987,43.7968345 29.9725,43.5585 C30.2255013,43.3201655 30.352,42.9700023 30.352,42.508 C30.352,42.0533311 30.2255013,41.7068345 29.9725,41.4685 C29.7194987,41.2301655 29.3106695,41.111 28.746,41.111 L27.349,41.111 L27.349,43.916 L28.746,43.916 Z M34.3265306,41.111 L32,41.111 L32,40 L38,40 L38,41.111 L35.6623377,41.111 L35.6623377,47.7 L34.3265306,47.7 L34.3265306,41.111 Z" id="path-1"></path>
    </defs>
    <g id="Symbols" stroke="none" stroke-width="1" fill="none" fill-rule="evenodd">
        <g id="File-type-/-PPT">
            <mask id="mask-2" fill="white">
                <use xlink:href="#path-1"></use>
            </mask>
            <use id="Shape" fill="#1B39BA" fill-rule="nonzero" xlink:href="#path-1"></use>
            <rect id="Rectangle-2" fill="#EE4040" mask="url(#mask-2)" x="16" y="38" width="22" height="10"></rect>
        </g>
    </g>
</svg>