<svg width="24" height="24" viewBox="0 0 24 24" xmlns="http://www.w3.org/2000/svg" xmlns:xlink="http://www.w3.org/1999/xlink"><title>DEC6E9D1-5D36-4DA0-B293-8EC1724CDABE</title><defs><path d="M17 5H3C1.34 5 0 6.34 0 8v6h4v4h12v-4h4V8c0-1.66-1.34-3-3-3zm-3 11H6v-5h8v5zm3-7c-.55 0-1-.45-1-1s.45-1 1-1 1 .45 1 1-.45 1-1 1zm-1-9H4v4h12V0z" id="a"/></defs><g transform="translate(2 3)" fill="#fff" fill-rule="evenodd"><mask id="b"><use xlink:href="#a"/></mask><use fill-rule="nonzero" xlink:href="#a"/><g mask="url(#b)"><rect width="24" height="24" rx="4" transform="translate(-2 -3)"/></g></g></svg>