<svg width="38" height="48" viewBox="0 0 38 48" xmlns="http://www.w3.org/2000/svg" xmlns:xlink="http://www.w3.org/1999/xlink"><title>Shape</title><defs><path d="M36 38V13H25V2H2v44h14v2h11H0V0h27.007L38 11.014V48H27h11V38h-2zM27.007 3.019v7.995h8.013L27.007 3.02zM7.909 14h8.182c.502 0 .909-.447.909-1 0-.553-.407-1-.91-1H7.91c-.503 0-.91.447-.91 1 0 .553.407 1 .91 1zm0 6h21.182c.502 0 .909-.447.909-1 0-.553-.407-1-.91-1H7.91c-.503 0-.91.447-.91 1 0 .553.407 1 .91 1zm0 6h21.182c.502 0 .909-.447.909-1 0-.553-.407-1-.91-1H7.91c-.503 0-.91.447-.91 1 0 .553.407 1 .91 1zm0 6h21.182c.502 0 .909-.447.909-1 0-.553-.407-1-.91-1H7.91c-.503 0-.91.447-.91 1 0 .553.407 1 .91 1zM18 40h2.761c.47 0 .884.057 1.243.17.36.114.66.275.902.484.242.21.423.459.545.748.12.29.181.611.181.963 0 .506-.12.942-.358 1.309s-.595.645-1.072.836l1.65 3.19h-1.441l-1.474-2.948h-1.628V47.7H18V40zm2.761 3.63c.535 0 .928-.112 1.177-.336.25-.223.374-.533.374-.929 0-.381-.125-.686-.374-.913-.25-.227-.642-.341-1.177-.341h-1.452v2.519h1.452zM27.086 40h1.375l2.728 7.7h-1.408l-.605-1.716h-2.86l-.605 1.716h-1.364l2.739-7.7zm1.705 4.873l-1.045-3.234-1.056 3.234h2.101zM32 40h2.761c.47 0 .884.057 1.243.17.36.114.66.275.902.484.242.21.423.459.544.748.122.29.182.611.182.963 0 .506-.12.942-.357 1.309-.239.367-.596.645-1.073.836l1.65 3.19h-1.441l-1.474-2.948h-1.628V47.7H32V40zm3.061 3.63c.535 0 .928-.112 1.177-.336.25-.223.374-.533.374-.929 0-.381-.125-.686-.374-.913-.25-.227-.642-.341-1.177-.341h-1.452v2.519h1.452z" id="a"/></defs><g fill="none" fill-rule="evenodd"><mask id="b" fill="#fff"><use xlink:href="#a"/></mask><use fill="#1B39BA" fill-rule="nonzero" xlink:href="#a"/><path fill="#793193" mask="url(#b)" d="M16 38h22v10H16z"/></g></svg>