<svg width="24" height="24" viewBox="0 0 24 24" xmlns="http://www.w3.org/2000/svg" xmlns:xlink="http://www.w3.org/1999/xlink"><title>4F4FC24A-450E-4CDD-91B3-D2183E882438</title><defs><path d="M8 5v3l4-4-4-4v3c-4.42 0-8 3.58-8 8 0 1.57.46 3.03 1.24 4.26L2.7 13.8A5.87 5.87 0 0 1 2 11c0-3.31 2.69-6 6-6zm6.76 1.74L13.3 8.2c.44.84.7 1.79.7 2.8 0 3.31-2.69 6-6 6v-3l-4 4 4 4v-3c4.42 0 8-3.58 8-8 0-1.57-.46-3.03-1.24-4.26z" id="a"/></defs><g transform="translate(4 1)" fill="none" fill-rule="evenodd"><mask id="b" fill="#fff"><use xlink:href="#a"/></mask><use fill="#1b39ba" fill-rule="nonzero" xlink:href="#a"/><g mask="url(#b)" fill="#1b39ba"><rect width="21" height="22" rx="4" transform="translate(-2.286 .2)"/></g></g></svg>