<svg width="24" height="24" viewBox="0 0 24 24" xmlns="http://www.w3.org/2000/svg" xmlns:xlink="http://www.w3.org/1999/xlink"><title>4B35AB77-8C2F-40B2-A8C9-D582D30AB8D8</title><defs><path d="M17.905 9.031a1.19 1.19 0 0 0-.061-.114c-.313-.548-.91-1.22-1.79-2.017l-.028-.027c-.42-.38-.672-.63-.778-.758-.194-.243-.238-.49-.132-.739.075-.189.357-.587.844-1.195.256-.323.459-.581.609-.776 1.08-1.4 1.55-2.293 1.406-2.683l-.056-.09C17.73.48 17.458.53 17.458.523a16.559 16.559 0 0 0-.563 0h-2.816a.162.162 0 0 0-.106.007l-.037.027a.412.412 0 0 0-.103.096.622.622 0 0 0-.094.16 14.73 14.73 0 0 1-1.003 2.053c-.23.377-.443.704-.637.981a4.74 4.74 0 0 1-.487.611 3.37 3.37 0 0 1-.357.315c-.106.08-.187.113-.243.1a7.024 7.024 0 0 1-.16-.036.613.613 0 0 1-.21-.224.982.982 0 0 1-.108-.356 3.823 3.823 0 0 1-.033-.37 7.518 7.518 0 0 1 .005-.437c.006-.189.01-.317.01-.383 0-.232.004-.483.013-.753.01-.271.017-.486.024-.644.006-.158.009-.325.009-.502 0-.176-.011-.314-.033-.415a1.394 1.394 0 0 0-.098-.292.496.496 0 0 0-.192-.219A1.1 1.1 0 0 0 9.925.12 6.448 6.448 0 0 0 8.66 0C7.498-.01 6.75.062 6.42.221a1.25 1.25 0 0 0-.356.273c-.113.134-.128.207-.047.219.375.055.64.186.796.392l.057.11c.043.08.087.22.13.42.045.2.073.423.085.666a6.95 6.95 0 0 1 0 1.14c-.031.317-.06.563-.089.74a1.45 1.45 0 0 1-.239.63.16.16 0 0 1-.047.045.719.719 0 0 1-.253.046c-.087 0-.193-.043-.318-.128a2.227 2.227 0 0 1-.39-.352 4.7 4.7 0 0 1-.454-.625 10.819 10.819 0 0 1-.525-.949l-.15-.264c-.093-.17-.221-.419-.384-.744-.162-.326-.306-.64-.43-.945A.603.603 0 0 0 3.58.603L3.533.576a.647.647 0 0 0-.15-.078A1.015 1.015 0 0 0 3.168.44L.6.457C.338.457.16.515.066.631L.028.685A.289.289 0 0 0 0 .832c0 .066.019.149.056.246.375.858.783 1.685 1.223 2.482.44.797.823 1.439 1.148 1.925.325.487.656.947.994 1.378.337.432.56.71.67.83.11.123.195.214.257.275l.235.219c.15.146.37.32.66.524.291.204.613.405.966.603.353.197.764.359 1.232.483a4.37 4.37 0 0 0 1.369.151h1.077c.219-.018.385-.085.497-.2l.037-.047a.596.596 0 0 0 .07-.168.904.904 0 0 0 .033-.251 2.93 2.93 0 0 1 .061-.707c.047-.21.1-.368.16-.475a1.168 1.168 0 0 1 .36-.401.62.62 0 0 1 .075-.032c.15-.049.327-.002.53.141s.394.32.572.53c.178.21.392.445.642.707.25.261.468.456.656.584l.187.11c.125.072.288.14.488.2.2.061.374.076.524.046l2.4-.037c.237 0 .421-.038.552-.114.132-.076.21-.16.235-.25a.689.689 0 0 0 .004-.311 1.122 1.122 0 0 0-.065-.242z" id="a"/></defs><g transform="translate(3 7)" fill="#fff" fill-rule="evenodd"><mask id="b"><use xlink:href="#a"/></mask><use fill-rule="nonzero" xlink:href="#a"/><g mask="url(#b)"><rect width="24" height="24" rx="4" transform="translate(-3 -7)"/></g></g></svg>