<svg width="24" height="24" viewBox="0 0 24 24" xmlns="http://www.w3.org/2000/svg" xmlns:xlink="http://www.w3.org/1999/xlink"><title>884B6631-A7AF-416C-9AE1-457D866C852D</title><defs><path d="M7.2 8.571V3.428L11.876 6 7.2 8.571zm10.424-6.697c-.207-.738-.817-1.319-1.592-1.516C14.63 0 9 0 9 0S3.37 0 1.968.358C1.193.555.583 1.136.376 1.874 0 3.21 0 6 0 6s0 2.79.376 4.126c.207.738.817 1.319 1.592 1.516C3.37 12 9 12 9 12s5.629 0 7.032-.358c.775-.197 1.385-.778 1.592-1.516C18 8.79 18 6 18 6s0-2.79-.376-4.126z" id="a"/></defs><g transform="translate(3 6)" fill="#fff" fill-rule="evenodd"><mask id="b"><use xlink:href="#a"/></mask><use xlink:href="#a"/><g mask="url(#b)"><rect width="24" height="24" rx="4" transform="translate(-3 -6)"/></g></g></svg>