<svg width="24" height="24" xmlns="http://www.w3.org/2000/svg" xmlns:xlink="http://www.w3.org/1999/xlink"><defs><path d="M10.2 14.571V9.428L14.876 12 10.2 14.571zm10.424-6.697c-.207-.738-.817-1.319-1.592-1.516C17.63 6 12 6 12 6s-5.629 0-7.032.358c-.775.197-1.385.778-1.592 1.516C3 9.21 3 12 3 12s0 2.79.376 4.126c.207.738.817 1.319 1.592 1.516C6.37 18 12 18 12 18s5.629 0 7.032-.358c.775-.197 1.385-.778 1.592-1.516C21 14.79 21 12 21 12s0-2.79-.376-4.126z" id="a"/></defs><use fill="#fff" xlink:href="#a" fill-rule="evenodd"/></svg>