<svg viewBox="0 0 111 114" xmlns="http://www.w3.org/2000/svg" fill-rule="evenodd" clip-rule="evenodd" stroke-linecap="round" stroke-miterlimit="10"><path d="M84.369 16.113c-7.128-3.867-15.294-6.063-23.973-6.063-27.805 0-50.346 22.541-50.346 50.346a50.137 50.137 0 0 0 5.836 23.55" fill="none" stroke="#31499d" stroke-width="2"/><path d="M41.802 108.08a50.276 50.276 0 0 0 16.191 2.661c27.806 0 50.346-22.542 50.346-50.346 0-7.197-1.51-14.041-4.231-20.233" fill="none" stroke="#45b54d" stroke-width="2" stroke-linejoin="round" stroke-miterlimit="4" stroke-dasharray="0,5.87"/><path d="M59.479 28.355V14.654" fill="none" stroke="#31499d" stroke-width="1.5"/><path d="M59.479 106.299V92.6" fill="none" stroke="#45b54d" stroke-width="1.5"/><path d="M27.827 60.395H14.126" fill="none" stroke="#31499d" stroke-width="1.5"/><path d="M102.558 60.395H88.857" fill="none" stroke="#45b54d" stroke-width="1.5"/><path d="M44.646 41.497l23.425 9.591 10.315 24.013 22.533-56.366-56.273 22.762z" fill="#45b54d"/><path d="M64.742 54.214l-23.128-9.545-22.533 56.365 56.273-22.762-10.612-24.058z" fill="#31499d"/><path d="M55.462 64.095l-36.381 36.94 56.273-22.762-10.612-24.059-9.28 9.881z" fill="#283474" fill-rule="nonzero"/><path d="M78.386 75.1l22.534-56.366-32.85 32.353L78.386 75.1z" fill="#009345" fill-rule="nonzero"/><path d="M109.073 50.304a1.859 1.859 0 1 1-3.717 0 1.859 1.859 0 0 1 3.717 0m0 20.9a1.859 1.859 0 1 1-3.718-.002 1.859 1.859 0 0 1 3.718.002m-58.642 38.628a1.859 1.859 0 1 1-3.718-.002 1.859 1.859 0 0 1 3.718.002m20.897-.508a1.86 1.86 0 1 1-3.72-.002 1.86 1.86 0 0 1 3.72.002m39.212-52.045a2.2 2.2 0 1 1-4.402 0 2.2 2.2 0 0 1 2.202-2.201c1.215 0 2.2.983 2.2 2.201m0 6.941a2.2 2.2 0 1 1-4.402 0 2.2 2.2 0 1 1 4.402 0m-45.62 46.521a2.2 2.2 0 0 1-2.201 2.2 2.2 2.2 0 1 1 0-4.401 2.2 2.2 0 0 1 2.201 2.201m-7.004 0a2.2 2.2 0 0 1-2.201 2.2 2.2 2.2 0 1 1 0-4.401 2.2 2.2 0 0 1 2.201 2.201" fill="#45b54d" fill-rule="nonzero"/></svg>