<svg width="60" height="64" viewBox="0 0 60 64" xmlns="http://www.w3.org/2000/svg" xmlns:xlink="http://www.w3.org/1999/xlink"><title>icon/ cup</title><defs><path d="M56.25 2.375h-8.827l.074-1.036A1.25 1.25 0 0 0 46.25 0h-32.5a1.25 1.25 0 0 0-1.247 1.34l.074 1.035H3.75C1.682 2.375 0 4.043 0 6.094v3.49A23.805 23.805 0 0 0 4.643 23.76a23.807 23.807 0 0 0 12.13 8.683l2.256.709a15.997 15.997 0 0 0 3.52 2.51c-.032.194-.049.39-.049.588a3.756 3.756 0 0 0 2.5 3.535v3.09h-3.75a3.754 3.754 0 0 0-3.75 3.75v4.125h-1.25a3.754 3.754 0 0 0-3.75 3.75v8.25c0 .69.56 1.25 1.25 1.25h32.5c.69 0 1.25-.56 1.25-1.25V54.5a3.754 3.754 0 0 0-3.75-3.75H42.5v-4.125a3.754 3.754 0 0 0-3.75-3.75H35v-3.088a3.75 3.75 0 0 0 2.452-4.124 15.939 15.939 0 0 0 3.526-2.518l.058-.016 2.185-.686a23.812 23.812 0 0 0 12.134-8.685A23.81 23.81 0 0 0 60 9.578V6.095c0-2.05-1.682-3.719-3.75-3.719zM45.977 22.624l.91-12.749h5.61a16.47 16.47 0 0 1-6.53 12.847c.003-.033.008-.065.01-.098zm-31.954 0l.008.101a16.4 16.4 0 0 1-6.529-12.85h5.61l.911 12.748zM2.5 9.583v-3.49c0-.684.55-1.219 1.25-1.219h9.006l.178 2.5H6.25c-.69 0-1.25.56-1.25 1.25v.96c0 6.898 3.693 13.189 9.665 16.53a15.943 15.943 0 0 0 1.518 3.472C7.943 26.395 2.5 18.527 2.5 9.584zM43.75 53.25c.69 0 1.25.56 1.25 1.25v7H15v-7c0-.69.56-1.25 1.25-1.25h27.5zm-5-7.875c.69 0 1.25.56 1.25 1.25v4.125H20v-4.125c0-.69.56-1.25 1.25-1.25h17.5zm-11.25-2.5V40h5v2.875h-5zm6.25-5.375h-7.5a1.25 1.25 0 0 1 0-2.5h7.5a1.25 1.25 0 0 1 0 2.5zm5.902-6.555c-1 1.02-2.14 1.862-3.396 2.518a3.754 3.754 0 0 0-2.506-.963h-7.5c-.935 0-1.818.34-2.507.962a13.51 13.51 0 0 1-7.226-11.016L15.093 2.5h29.814l-1.424 19.946a13.472 13.472 0 0 1-3.83 8.499zM57.5 9.579c0 8.944-5.442 16.813-13.683 20.006a15.98 15.98 0 0 0 1.517-3.47C51.296 22.78 55 16.443 55 9.578v-.953c0-.69-.56-1.25-1.25-1.25h-6.684l.178-2.5h9.006c.7 0 1.25.535 1.25 1.219v3.485zM41.25 56.125a1.25 1.25 0 1 1 0 2.5h-17.5a1.25 1.25 0 1 1 0-2.5h17.5zm-3.312-41.58a1.25 1.25 0 0 0-1.01-.85l-4.13-.6-1.724-3.736a1.25 1.25 0 0 0-2.261-.02l-1.772 3.675-4.38.682a1.25 1.25 0 0 0-.68 2.13l3.002 2.928-.709 4.133a1.25 1.25 0 0 0 1.814 1.318l3.713-1.952 3.712 1.952a1.25 1.25 0 0 0 1.814-1.318l-.709-4.133 3.003-2.928a1.25 1.25 0 0 0 .317-1.281zm-5.535 2.877a1.25 1.25 0 0 0-.36 1.107l.392 2.285-2.052-1.08a1.25 1.25 0 0 0-1.163 0l-2.053 1.08.391-2.285a1.25 1.25 0 0 0-.359-1.107l-1.684-1.64 2.559-.4a1.25 1.25 0 0 0 .933-.691l.907-1.88.899 1.947c.177.384.536.652.955.713l2.295.333-1.66 1.618zM18.75 56.125a1.25 1.25 0 1 1 0 2.5 1.25 1.25 0 0 1 0-2.5z" id="a"/></defs><g fill="none" fill-rule="evenodd"><mask id="b" fill="#fff"><use xlink:href="#a"/></mask><use fill="#1B39BA" fill-rule="nonzero" xlink:href="#a"/><path fill="#40B550" mask="url(#b)" d="M20 7h20v19H20z"/></g></svg>