<svg width="176" height="40" xmlns="http://www.w3.org/2000/svg"><g fill="#fff" fill-rule="evenodd"><path d="M.857 19.576l6.65 2.74 2.917 6.827 6.433-16z"/><path d="M76.042 2.614l.112-1.001h1.694v3.844h-2.564a6.346 6.346 0 0 0 .758-2.843zm-2.637 4.808h1.009V6.403h4.292v1.026h1.008V5.463h-.837V.673h-3.778l-.06 1.142c-.105 2.138-.691 3.347-.948 3.642h-.66l-.026 1.965zM70.59 6.397h1.074V.673h-1.048v2.34h-2.809V.673h-1.08v5.724h1.08V3.94h2.81l-.027 2.457zM59.533 3.529c-.1-.74.266-1.466.941-1.865a2.19 2.19 0 0 1 2.213 0c.675.399 1.041 1.126.94 1.865a1.799 1.799 0 0 1-.55 1.435 2.088 2.088 0 0 1-1.513.58 2.149 2.149 0 0 1-1.47-.61 1.86 1.86 0 0 1-.56-1.405zm-1.14 0a2.742 2.742 0 0 0 .9 2.133 3.18 3.18 0 0 0 2.297.82 3.226 3.226 0 0 0 2.286-.832 2.79 2.79 0 0 0 .919-2.121 2.749 2.749 0 0 0-.906-2.133A3.187 3.187 0 0 0 61.59.575a3.219 3.219 0 0 0-2.284.833 2.78 2.78 0 0 0-.913 2.12zm-7.252-.08c0-.78.573-1.314 1.694-1.327v2.635c-1.075 0-1.675-.442-1.675-1.302l-.02-.006zm4.47 0c0 .878-.58 1.314-1.695 1.326V2.13c1.14.018 1.714.558 1.714 1.326l-.02-.006zm-2.776 3.01h1.081v-.756c1.675 0 2.835-.817 2.835-2.248 0-1.43-1.16-2.223-2.835-2.248V.593h-1.081v.614c-1.688 0-2.835.817-2.835 2.248 0 1.431 1.14 2.248 2.835 2.248v.755zM107.5 16.662l3.156-4.073v4.073h1.058v-5.71h-.929l-3.155 4.08v-4.08h-1.059v5.71h.93zm-7.478 0h1.058v-2.928l2.452 2.928h1.342l-2.632-3.076 2.49-2.633h-1.29l-2.375 2.72v-2.72h-1.058l.013 5.71zm-7.382-2.99l-2.362 2.99h1.213l2.272-2.947v2.947h1.045v-2.947l2.284 2.947h1.188l-2.356-3.002 2.259-2.738h-1.194l-2.175 2.738v-2.707h-1.051v2.738l-2.181-2.738h-1.213l2.27 2.72zm-5.601-1.846c.723 0 1.11.296 1.11.892 0 .597-.49.923-1.117.923-.25-.002-.5-.016-.748-.043V11.9l.755-.074zm-.755 4.836V14.62h.78a2.052 2.052 0 0 0 1.527-.462 1.86 1.86 0 0 0 .674-1.384c0-.941-.561-1.846-2.33-1.846h-1.71v5.734h1.059zm-6.627 0h3.568v-.91h-2.51v-1.483h2.168v-.948h-2.168v-1.42h2.426v-.948h-3.484v5.71zm-5.382-3.796l.097-1.003h1.658v3.852h-2.51a6.47 6.47 0 0 0 .749-2.818l.006-.03zm-2.58 4.818h.986v-1.022h4.201v1.022h.988v-1.97h-.82v-4.761h-3.73l-.058 1.144c-.103 2.141-.677 3.353-.929 3.649h-.645l.006 1.938zm-5.034-4.787l.097-1.003h1.658v3.852h-2.51a6.476 6.476 0 0 0 .755-2.85zm-2.581 4.817h.987v-1.052h4.201v1.022h.987v-1.97h-.82v-4.761h-3.677l-.058 1.144c-.104 2.141-.678 3.353-.93 3.649h-.645l-.045 1.968zm-6.33-3.894a1.904 1.904 0 0 1 .974-1.758 2.104 2.104 0 0 1 2.085 0 1.904 1.904 0 0 1 .974 1.758 1.825 1.825 0 0 1-.539 1.438 2.018 2.018 0 0 1-1.481.58 2.077 2.077 0 0 1-1.423-.615 1.887 1.887 0 0 1-.545-1.397l-.045-.006zm-1.117 0a2.779 2.779 0 0 0 .882 2.136 3.07 3.07 0 0 0 2.248.823 3.115 3.115 0 0 0 2.238-.835c.593-.56.918-1.328.898-2.124.032-.8-.29-1.575-.886-2.137a3.076 3.076 0 0 0-2.25-.823 3.105 3.105 0 0 0-2.208.854c-.583.56-.9 1.323-.876 2.112l-.046-.006zm-2.877 2.842h1.058v-5.71H50v5.71h1.058V11.9h2.698v4.762zm118.84 6.983l.887 2.053h-1.781l.894-2.053zm-3.015 4.471h1.077l.652-1.472h2.61l.652 1.472h1.142l-2.57-5.782h-.992l-2.57 5.782zm-3.523-4.842c.574 0 .96.247.96.717a.736.736 0 0 1-.264.587.826.826 0 0 1-.644.186h-.744v-1.466c.21-.018.444-.024.692-.024zm.085 2.362c.652 0 1.063.248 1.063.736 0 .489-.391.835-1.109.835a6.252 6.252 0 0 1-.704-.043v-1.528h.75zm-1.827 2.474c.359 0 1.142.043 1.696.043 1.305 0 2.258-.544 2.258-1.731.044-.637-.412-1.209-1.07-1.342.55-.222.896-.745.868-1.312 0-.797-.549-1.422-1.997-1.422-.607 0-1.416 0-1.755.043v5.721zm-6.733-4.812h1.957v4.818h1.07v-4.818h1.957v-.946h-5.017l.033.946zm-1.749 3.5c-.414.302-.92.465-1.442.465a2.081 2.081 0 0 1-1.508-.582c-.394-.386-.6-.91-.567-1.447a1.796 1.796 0 0 1 .505-1.425c.373-.387.9-.606 1.453-.603.489-.012.968.125 1.37.39l.476-.749a2.87 2.87 0 0 0-1.846-.557 3.04 3.04 0 0 0-2.264.823 2.715 2.715 0 0 0-.848 2.152c-.04.793.275 1.565.868 2.125a3.06 3.06 0 0 0 2.244.819 2.902 2.902 0 0 0 1.957-.65l-.398-.76zm-9.284-4.446h-1.07v5.764h1.54c1.618 0 2.518-.767 2.518-1.985s-.724-1.855-2.297-1.855c-.233 0-.466.015-.698.043l.007-1.967zm.606 2.882c.75 0 1.253.29 1.253.94 0 .65-.49 1.015-1.266 1.015h-.593v-1.912c.248-.024.456-.043.613-.043h-.007zm-5.043 2.882h1.07v-5.764h-3.83l-.085 1.175c-.267 3.476-.887 3.668-1.357 3.606v1.008c1.2.167 1.99-.377 2.35-3.71l.123-1.09h1.775l-.046 4.775zm-9.467 0h3.608v-.946h-2.531v-1.49h2.192v-.947h-2.192v-1.435h2.453v-.946h-3.523l-.007 5.764zm-6.733-4.818h1.957v4.818h1.07v-4.818h1.957v-.946h-5.017l.033.946zm-3.406.347l.887 2.053h-1.781l.894-2.053zm-3.014 4.471h1.076l.653-1.472h2.61l.652 1.472h1.083l-2.57-5.782h-.94l-2.564 5.782zm-7.83 0h1.07v-4.143l1.958 2.535h.156l1.918-2.56v4.168h1.064v-5.764h-1.011l-1.958 2.697-2.075-2.697h-1.076l-.046 5.764zm-6.564 0l3.191-4.094v4.094h1.07v-5.764h-.94l-3.19 4.1v-4.1h-1.07v5.764h.94zm-4.3 0h1.064v-5.764h-1.09v2.357h-2.779v-2.357h-1.07v5.764h1.07v-2.474h2.78l.026 2.474zm-10.438 0l3.19-4.094v4.094h1.07v-5.764h-.94l-3.19 4.1v-4.1h-1.07v5.764h.94zm-5.057-4.836c.73 0 1.122.297 1.122.897 0 .6-.496.927-1.128.927a7.876 7.876 0 0 1-.757-.043v-1.763l.763-.018zm-.763 4.836v-2.084h.79c.56.057 1.12-.11 1.542-.464.423-.352.67-.857.682-1.391 0-.947-.568-1.856-2.355-1.856h-1.73v5.764l1.07.031zm-4.437 0H81.2v-5.764h-4.847v5.764h1.07v-4.818h2.714l-.033 4.818zM70.878 24.3l.098-1.008h1.677v3.872H70.11c.476-.89.739-1.867.77-2.864zm-2.61 4.843h.999v-1.027h4.247v1.027h.999v-1.98h-.829v-4.81h-3.771l-.033 1.174c-.104 2.152-.685 3.37-.94 3.668h-.652l-.02 1.948zm-5.18-1.027h3.608v-.946h-2.538v-1.49h2.192v-.947h-2.192v-1.435h2.453v-.946h-3.523v5.764zm-4.071-4.836c.73 0 1.122.297 1.122.897 0 .6-.496.927-1.129.927a7.876 7.876 0 0 1-.756-.043v-1.763l.763-.018zm-.763 4.836v-2.084h.789a2.08 2.08 0 0 0 1.543-.464c.423-.352.67-.857.682-1.391 0-.947-.568-1.856-2.356-1.856h-1.729v5.764l1.07.031zm-4.437 0h1.07v-5.764H50v5.764h1.07v-4.818h2.727l.02 4.818zm18.773 5.69h-1.085v5.532h1.535c1.576 0 2.496-.736 2.496-1.905 0-1.17-.735-1.78-2.257-1.78a5.961 5.961 0 0 0-.662.04l-.027-1.887zm.602 2.766c.762 0 1.199.309 1.199.902 0 .594-.424.974-1.218.974h-.583v-1.834c.2-.024.401-.037.602-.042zm3.164 2.766h1.073v-5.532h-1.073v5.532zm-9.028-4.624c.741 0 1.139.285 1.139.861 0 .576-.503.89-1.145.89a8.463 8.463 0 0 1-.768-.041v-1.71h.774zm-.774 4.642v-2.018h.8a2.197 2.197 0 0 0 1.566-.445c.43-.339.68-.823.692-1.336 0-.908-.576-1.78-2.39-1.78h-1.754v5.531l1.086.048zm-6.328 0h1.086v-4.642h2.396v-.908h-3.482v5.55zm-6.99-2.766c-.057-.496.12-.991.489-1.365a2.088 2.088 0 0 1 1.451-.6 2.097 2.097 0 0 1 1.474.58c.378.37.564.867.512 1.367 0 1.092-.662 1.947-1.946 1.947a2.146 2.146 0 0 1-1.452-.596 1.717 1.717 0 0 1-.527-1.35v.017zM50 39.356h1.085v-2.374h1.033c.133 1.414 1.476 2.488 3.058 2.445.848.024 1.668-.27 2.262-.813.595-.542.91-1.282.869-2.042.053-.762-.257-1.51-.855-2.054-.597-.545-1.425-.836-2.276-.8-1.541-.033-2.853.999-3.018 2.373h-1.046v-2.285H50v5.55z" fill-rule="nonzero"/></g></svg>