<?xml version="1.0" encoding="UTF-8"?>
<svg width="176px" height="40px" viewBox="0 0 176 40" version="1.1" xmlns="http://www.w3.org/2000/svg" xmlns:xlink="http://www.w3.org/1999/xlink">
    <!-- Generator: sketchtool 49 (51002) - http://www.bohemiancoding.com/sketch -->
    <title>7537D017-ACE6-4DC9-A9CB-36A8432B870A</title>
    <desc>Created with sketchtool.</desc>
    <defs></defs>
    <g id="Symbols" stroke="none" stroke-width="1" fill="none" fill-rule="evenodd">
        <g id="Elemets-/-header" transform="translate(-174.000000, -76.000000)">
            <g id="logo" transform="translate(160.000000, 72.000000)">
                <g id="txt" transform="translate(14.000000, 4.000000)">
                    <polygon id="Shape" fill="#40b550" points="0.857142857 19.5759124 7.5063284 22.3156819 10.4240876 29.1428571 16.8571429 13.1428571"></polygon>
                    <path d="M76.0420299,2.6136899 L76.1541095,1.61263672 L77.8484897,1.61263672 L77.8484897,5.45717223 L75.2838442,5.45717223 C75.7582573,4.57291223 76.017152,3.60195925 76.0420299,2.6136899 Z M73.4048623,7.42243 L74.4135789,7.42243 L74.4135789,6.40295253 L78.7055691,6.40295253 L78.7055691,7.42857143 L79.7142857,7.42857143 L79.7142857,5.46331366 L78.876985,5.46331366 L78.876985,0.672997852 L75.0992424,0.672997852 L75.0399062,1.81530393 C74.9344195,3.95252175 74.3476497,5.16238357 74.0905258,5.45717223 L73.431234,5.45717223 L73.4048623,7.42243 Z M70.5896859,6.3968111 L71.6643317,6.3968111 L71.6643317,0.672997852 L70.6160576,0.672997852 L70.6160576,3.01288288 L67.8074741,3.01288288 L67.8074741,0.672997852 L66.7262354,0.672997852 L66.7262354,6.3968111 L67.8074741,6.3968111 L67.8074741,3.94023889 L70.6160576,3.94023889 L70.5896859,6.3968111 Z M59.5333608,3.52876305 C59.4324797,2.78971083 59.7991142,2.06290957 60.474268,1.6635472 C61.1494218,1.26418483 62.0115025,1.26418483 62.6866563,1.6635472 C63.3618101,2.06290957 63.7284446,2.78971083 63.6275635,3.52876305 C63.6707882,4.05819519 63.470775,4.57984156 63.0772673,4.96396836 C62.6837595,5.34809515 62.1337331,5.55860801 61.5639798,5.54315226 C61.0060605,5.53204824 60.4764137,5.31225335 60.0944127,4.93330551 C59.7124117,4.55435766 59.510203,4.04814646 59.5333608,3.52876305 Z M58.3927858,3.52876305 C58.35849,4.32590722 58.6852641,5.09980617 59.2933563,5.661584 C59.9014485,6.22336183 60.7349185,6.52133871 61.5903515,6.48279113 C62.4430314,6.51007546 63.2700611,6.2086547 63.8764638,5.64959048 C64.4828664,5.09052626 64.8149812,4.32329041 64.7945101,3.52876305 C64.8269014,2.7310364 64.4985931,1.95723153 63.8894887,1.3956765 C63.2803843,0.834121456 62.4463424,0.536314246 61.5903515,0.574734964 C60.7382465,0.547367679 59.9118257,0.848967066 59.3064472,1.40823786 C58.7010687,1.96750865 58.3704643,2.73481144 58.3927858,3.52876305 Z M51.140575,3.44892445 C51.140575,2.66896277 51.7141589,2.13465832 52.8349551,2.12237546 L52.8349551,4.75704915 C51.7603094,4.75704915 51.1603537,4.31486615 51.1603537,3.45506588 L51.140575,3.44892445 Z M55.610574,3.44892445 C55.610574,4.32714901 55.0303972,4.76319058 53.9161939,4.77547344 L53.9161939,2.12851689 C55.0567688,2.14694118 55.6303528,2.68738706 55.6303528,3.45506588 L55.610574,3.44892445 Z M52.8349551,6.45822541 L53.9161939,6.45822541 L53.9161939,5.70282945 C55.5907953,5.70282945 56.751149,4.88601919 56.751149,3.45506588 C56.751149,2.02411257 55.5907953,1.23186803 53.9161939,1.20730231 L53.9161939,0.593159255 L52.8349551,0.593159255 L52.8349551,1.20730231 C51.1471679,1.20730231 50,2.02411257 50,3.45506588 C50,4.88601919 51.140575,5.70282945 52.8349551,5.70282945 L52.8349551,6.45822541 Z" id="Shape" fill="#40b550" fill-rule="nonzero"></path>
                    <path d="M107.500627,16.6622166 L110.656032,12.5892939 L110.656032,16.6622166 L111.714286,16.6622166 L111.714286,10.9527419 L110.785087,10.9527419 L107.629683,15.031817 L107.629683,10.9527419 L106.571429,10.9527419 L106.571429,16.6622166 L107.500627,16.6622166 Z M100.021868,16.6622166 L101.080122,16.6622166 L101.080122,13.7336498 L103.532174,16.6622166 L104.87435,16.6622166 L102.24162,13.585991 L104.732389,10.9527419 L103.441835,10.9527419 L101.067216,13.6721253 L101.067216,10.9527419 L100.008962,10.9527419 L100.021868,16.6622166 Z M92.6398996,13.6721253 L90.2781861,16.6622166 L91.4913067,16.6622166 L93.7626815,13.7151925 L93.7626815,16.6622166 L94.8080301,16.6622166 L94.8080301,13.7151925 L97.0923104,16.6622166 L98.27962,16.6622166 L95.9243592,13.6598204 L98.1828285,10.9219797 L96.9890661,10.9219797 L94.8144829,13.6598204 L94.8144829,10.9527419 L93.7626815,10.9527419 L93.7626815,13.6905827 L91.5816455,10.9527419 L90.3685248,10.9527419 L92.6398996,13.6721253 Z M87.0388959,11.82639 C87.761606,11.82639 88.1487722,12.1217077 88.1487722,12.7184954 C88.1487722,13.3152832 87.6583617,13.6413631 87.0324431,13.6413631 C86.7823334,13.6390652 86.5325064,13.6246911 86.2839218,13.5982959 L86.2839218,11.9002194 L87.0388959,11.82639 Z M86.2839218,16.6622166 L86.2839218,14.6196028 C86.5420326,14.6196028 86.8840294,14.6196028 87.0647069,14.6196028 C87.6187401,14.6766381 88.172437,14.5092822 88.5908232,14.1583314 C89.0092094,13.8073806 89.2538472,13.3050772 89.2651013,12.7738675 C89.2651013,11.8325425 88.7037103,10.9281321 86.9356516,10.9281321 L85.2256677,10.9281321 L85.2256677,16.6622166 L86.2839218,16.6622166 Z M79.6569278,16.6622166 L83.2253092,16.6622166 L83.2253092,15.7516538 L80.7151819,15.7516538 L80.7151819,14.2689131 L82.8833124,14.2689131 L82.8833124,13.3214356 L80.7151819,13.3214356 L80.7151819,11.9002194 L83.1414232,11.9002194 L83.1414232,10.9527419 L79.6569278,10.9527419 L79.6569278,16.6622166 Z M74.2753182,12.8661542 L74.3721097,11.8633047 L76.0304714,11.8633047 L76.0304714,15.7147391 L73.5203441,15.7147391 C73.9825254,14.8387989 74.2380114,13.8770168 74.2688654,12.8969165 L74.2753182,12.8661542 Z M71.6942104,17.6835235 L72.6814841,17.6835235 L72.6814841,16.6622166 L76.882237,16.6622166 L76.882237,17.6835235 L77.8695107,17.6835235 L77.8695107,15.7147391 L77.050009,15.7147391 L77.050009,10.9527419 L73.3203083,10.9527419 L73.2622334,12.0970979 C73.1589891,14.2381508 72.5846926,15.4501837 72.3330346,15.7455014 L71.6877577,15.7455014 L71.6942104,17.6835235 Z M66.6610504,12.8969165 L66.7578419,11.894067 L68.4162036,11.894067 L68.4162036,15.7455014 L65.9060764,15.7455014 C66.3748772,14.8606402 66.6326881,13.8878965 66.6610504,12.8969165 Z M64.0799426,17.7142857 L65.0672163,17.7142857 L65.0672163,16.6622166 L69.2679692,16.6622166 L69.2679692,17.6835235 L70.2552429,17.6835235 L70.2552429,15.7147391 L69.4357412,15.7147391 L69.4357412,10.9527419 L65.7576627,10.9527419 L65.6995877,12.0970979 C65.5963434,14.2381508 65.022047,15.4501837 64.770389,15.7455014 L64.125112,15.7455014 L64.0799426,17.7142857 Z M57.7497759,13.8197842 C57.707466,13.1069373 58.0822857,12.4302797 58.7236293,12.0616984 C59.3649729,11.6931172 60.1675598,11.6931172 60.8089034,12.0616984 C61.450247,12.4302797 61.8250667,13.1069373 61.7827568,13.8197842 C61.8250627,14.3501664 61.6293013,14.8727488 61.2441585,15.2575649 C60.8590158,15.642381 60.3206816,15.8532716 59.76304,15.8377881 C59.2215459,15.8217745 58.7091615,15.6003171 58.3396421,15.2225821 C57.9701226,14.844847 57.7740467,14.3420929 57.7949453,13.8259366 L57.7497759,13.8197842 Z M56.6334469,13.8197842 C56.5998801,14.6183588 56.9197077,15.3936465 57.5148734,15.9564324 C58.110039,16.5192183 58.9257914,16.8177299 59.76304,16.7791131 C60.5975939,16.8064464 61.407043,16.5044848 62.0005549,15.9444174 C62.5940669,15.3843499 62.9191217,14.6157373 62.8990859,13.8197842 C62.9307885,13.020626 62.6094593,12.2454326 62.013303,11.6828699 C61.4171467,11.1203071 60.6008346,10.8219655 59.76304,10.8604552 C58.9356276,10.845006 58.1376742,11.1532984 57.5549365,11.7135644 C56.9721988,12.2738305 56.6555185,13.037189 56.6786162,13.8259366 L56.6334469,13.8197842 Z M53.7555117,16.6622166 L54.8137659,16.6622166 L54.8137659,10.9527419 L50,10.9527419 L50,16.6622166 L51.0582542,16.6622166 L51.0582542,11.9002194 L53.7555117,11.9002194 L53.7555117,16.6622166 Z" id="Shape" fill="#40b550" fill-rule="nonzero"></path>
                    <path d="M172.595569,23.6447648 L173.482903,25.6980457 L171.701711,25.6980457 L172.595569,23.6447648 Z M169.581245,28.1162167 L170.657789,28.1162167 L171.310241,26.6442865 L173.920045,26.6442865 L174.572496,28.1162167 L175.714286,28.1162167 L173.143628,22.3336337 L172.151902,22.3336337 L169.581245,28.1162167 Z M166.058009,23.27369 C166.632166,23.27369 167.017112,23.5210732 167.017112,23.9911014 C167.025214,24.2140393 166.928831,24.4289492 166.753848,24.5781094 C166.578865,24.7272695 166.34322,24.7953898 166.110205,24.764174 L165.366411,24.764174 L165.366411,23.2984283 C165.575195,23.2798746 165.810077,23.27369 166.058009,23.27369 Z M166.142827,25.6361998 C166.795279,25.6361998 167.206323,25.8835831 167.206323,26.372165 C167.206323,26.8607468 166.814852,27.2070834 166.097156,27.2070834 C165.861575,27.2059314 165.626276,27.1914751 165.392509,27.1637913 L165.392509,25.6361998 L166.142827,25.6361998 Z M164.315964,28.1100322 C164.674812,28.1100322 165.457754,28.1533242 166.012337,28.1533242 C167.31724,28.1533242 168.269818,27.6090811 168.269818,26.4216416 C168.313892,25.7845817 167.858386,25.2132713 167.199798,25.0795876 C167.749955,24.8576809 168.096185,24.3345495 168.067558,23.7684565 C168.067558,22.9706455 167.519499,22.3460029 166.071058,22.3460029 C165.464278,22.3460029 164.655239,22.3460029 164.315964,22.3892949 L164.315964,28.1100322 Z M157.582669,23.2984283 L159.540022,23.2984283 L159.540022,28.1162167 L160.610042,28.1162167 L160.610042,23.2984283 L162.567395,23.2984283 L162.567395,22.3521875 L157.550046,22.3521875 L157.582669,23.2984283 Z M155.834099,26.798901 C155.420427,27.0997492 154.913582,27.2627939 154.392182,27.2627446 C153.825769,27.2775235 153.278788,27.0664088 152.884371,26.6807841 C152.489954,26.2951594 152.284272,25.7703907 152.317388,25.2342021 C152.265826,24.7128804 152.449052,24.1951775 152.821863,23.808807 C153.194674,23.4224364 153.722359,23.2033735 154.274741,23.2056596 C154.763508,23.1943936 155.243378,23.3308539 155.644889,23.5952882 L156.121178,22.8469539 C155.59661,22.4564941 154.940883,22.2588236 154.274741,22.2903417 C153.430758,22.2442827 152.606505,22.5437626 152.011232,23.1127533 C151.415959,23.6817441 151.106913,24.4655267 151.162549,25.265125 C151.12288,26.0579047 151.43824,26.8297005 152.030918,27.3903214 C152.623595,27.9509424 153.438472,28.248252 154.274741,28.2089854 C154.990742,28.2374321 155.691085,28.0050831 156.232095,27.5596045 L155.834099,26.798901 Z M146.54972,22.3521875 L145.4797,22.3521875 L145.4797,28.1162167 C145.838548,28.1162167 146.438803,28.1162167 147.019485,28.1162167 C148.637563,28.1162167 149.537946,27.3493287 149.537946,26.1309663 C149.537946,24.9126039 148.813725,24.2755921 147.241318,24.2755921 C147.007887,24.2762597 146.774728,24.2907184 146.543195,24.3188841 L146.54972,22.3521875 Z M147.156499,25.2342021 C147.906818,25.2342021 148.409205,25.5248774 148.409205,26.1742584 C148.409205,26.8236394 147.919867,27.1885296 147.14345,27.1885296 C146.934666,27.1885296 146.745455,27.1885296 146.54972,27.1885296 L146.54972,25.2774942 C146.797651,25.2527558 147.006436,25.2342021 147.163024,25.2342021 L147.156499,25.2342021 Z M142.113052,28.1162167 L143.183072,28.1162167 L143.183072,22.3521875 L139.353184,22.3521875 L139.268365,23.5272578 C139.00086,27.0029922 138.381031,27.1947142 137.911267,27.1328684 L137.911267,28.1409551 C139.111777,28.3079387 139.901243,27.7636956 140.260091,24.4302066 L140.384056,23.3417204 L142.158724,23.3417204 L142.113052,28.1162167 Z M132.645986,28.1162167 L136.254041,28.1162167 L136.254041,27.1699759 L133.72253,27.1699759 L133.72253,25.6794919 L135.914766,25.6794919 L135.914766,24.7332511 L133.72253,24.7332511 L133.72253,23.2984283 L136.175747,23.2984283 L136.175747,22.3521875 L132.65251,22.3521875 L132.645986,28.1162167 Z M125.91269,23.2984283 L127.870044,23.2984283 L127.870044,28.1162167 L128.940063,28.1162167 L128.940063,23.2984283 L130.897417,23.2984283 L130.897417,22.3521875 L125.880068,22.3521875 L125.91269,23.2984283 Z M122.506895,23.6447648 L123.394229,25.6980457 L121.613037,25.6980457 L122.506895,23.6447648 Z M119.492571,28.1162167 L120.569115,28.1162167 L121.221566,26.6442865 L123.831371,26.6442865 L124.483822,28.1162167 L125.566891,28.1162167 L122.996234,22.3336337 L122.056704,22.3336337 L119.492571,28.1162167 Z M111.663157,28.1162167 L112.733177,28.1162167 L112.733177,23.9725476 L114.690531,26.5082257 L114.847119,26.5082257 L116.765325,23.9478093 L116.765325,28.1162167 L117.828821,28.1162167 L117.828821,22.3521875 L116.817521,22.3521875 L114.860168,25.0486647 L112.785373,22.3521875 L111.708829,22.3521875 L111.663157,28.1162167 Z M105.099499,28.1162167 L108.289985,24.0220243 L108.289985,28.1162167 L109.360005,28.1162167 L109.360005,22.3521875 L108.420475,22.3521875 L105.229989,26.4525645 L105.229989,22.3521875 L104.159969,22.3521875 L104.159969,28.1162167 L105.099499,28.1162167 Z M100.799846,28.1162167 L101.863341,28.1162167 L101.863341,22.3521875 L100.773748,22.3521875 L100.773748,24.7085127 L97.9943059,24.7085127 L97.9943059,22.3521875 L96.924286,22.3521875 L96.924286,28.1162167 L97.9943059,28.1162167 L97.9943059,25.6423844 L100.773748,25.6423844 L100.799846,28.1162167 Z M90.3606275,28.1162167 L93.5511136,24.0220243 L93.5511136,28.1162167 L94.6211335,28.1162167 L94.6211335,22.3521875 L93.6816038,22.3521875 L90.4911178,26.4525645 L90.4911178,22.3521875 L89.4210979,22.3521875 L89.4210979,28.1162167 L90.3606275,28.1162167 Z M85.3041312,23.2798746 C86.0348765,23.2798746 86.4263472,23.5767345 86.4263472,24.1766388 C86.4263472,24.7765431 85.9304843,25.1043259 85.2976067,25.1043259 C85.0447151,25.1020479 84.7921088,25.0875986 84.5407634,25.0610338 L84.5407634,23.2984283 L85.3041312,23.2798746 Z M84.5407634,28.1162167 L84.5407634,26.032013 C84.8017438,26.032013 85.1475429,26.032013 85.3302292,26.032013 C85.8904222,26.0893462 86.4502751,25.9211163 86.8733129,25.5683327 C87.2963508,25.2155492 87.5437084,24.7106226 87.5550876,24.1766388 C87.5550876,23.2303979 86.9874551,22.3212646 85.199739,22.3212646 L83.4707435,22.3212646 L83.4707435,28.0852938 L84.5407634,28.1162167 Z M80.1040956,28.1162167 L81.2002135,28.1162167 L81.2002135,22.3521875 L76.3525016,22.3521875 L76.3525016,28.1162167 L77.4225214,28.1162167 L77.4225214,23.2984283 L80.1367182,23.2984283 L80.1040956,28.1162167 Z M70.8784365,24.3003304 L70.9763042,23.2922437 L72.6531036,23.2922437 L72.6531036,27.1637913 L70.1085441,27.1637913 C70.5850228,26.2748782 70.8479464,25.296986 70.8784365,24.3003304 Z M68.2686319,29.1428571 L69.2668822,29.1428571 L69.2668822,28.1162167 L73.5143391,28.1162167 L73.5143391,29.1428571 L74.5125893,29.1428571 L74.5125893,27.1637913 L73.6839764,27.1637913 L73.6839764,22.3521875 L69.9128088,22.3521875 L69.8801862,23.5272578 C69.7757941,25.6794919 69.1951125,26.8978543 68.9406566,27.1947142 L68.2882055,27.1947142 L68.2686319,29.1428571 Z M63.0881699,28.1162167 L66.6962247,28.1162167 L66.6962247,27.1699759 L64.1581897,27.1699759 L64.1581897,25.6794919 L66.3504256,25.6794919 L66.3504256,24.7332511 L64.1581897,24.7332511 L64.1581897,23.2984283 L66.611406,23.2984283 L66.611406,22.3521875 L63.0881699,22.3521875 L63.0881699,28.1162167 Z M59.0168748,23.2798746 C59.74762,23.2798746 60.1390907,23.5767345 60.1390907,24.1766388 C60.1390907,24.7765431 59.6432279,25.1043259 59.0103502,25.1043259 C58.7574587,25.1020479 58.5048523,25.0875986 58.2535069,25.0610338 L58.2535069,23.2984283 L59.0168748,23.2798746 Z M58.2535069,28.1162167 L58.2535069,26.032013 C58.5144874,26.032013 58.8602865,26.032013 59.0429728,26.032013 C59.6031658,26.0893462 60.1630187,25.9211163 60.5860565,25.5683327 C61.0090943,25.2155492 61.256452,24.7106226 61.2678312,24.1766388 C61.2678312,23.2303979 60.7001987,22.3212646 58.9124826,22.3212646 L57.1834871,22.3212646 L57.1834871,28.0852938 L58.2535069,28.1162167 Z M53.8168392,28.1162167 L54.886859,28.1162167 L54.886859,22.3521875 L50,22.3521875 L50,28.1162167 L51.0700199,28.1162167 L51.0700199,23.2984283 L53.7972656,23.2984283 L53.8168392,28.1162167 Z" id="Shape" fill="#40b550" fill-rule="nonzero"></path>
                    <path d="M72.590182,33.8061859 L71.5046884,33.8061859 L71.5046884,39.3381684 C71.8687259,39.3381684 72.4578047,39.3381684 73.0402648,39.3381684 C74.6155543,39.3381684 75.5355764,38.6021536 75.5355764,37.4328397 C75.5355764,36.2635258 74.8008825,35.6521586 73.2785438,35.6521586 C73.0571694,35.653725 72.8361164,35.6676014 72.6166575,35.6937078 L72.590182,33.8061859 Z M73.1924986,36.5721772 C73.953668,36.5721772 74.390513,36.8808285 74.390513,37.4743889 C74.390513,38.0679493 73.9669057,38.4478279 73.172642,38.4478279 C72.9608384,38.4478279 72.7821291,38.4478279 72.590182,38.4478279 L72.590182,36.6137264 C72.7900103,36.5904788 72.9910565,36.5766102 73.1924986,36.5721772 Z M76.3563155,39.3381684 L77.4285714,39.3381684 L77.4285714,33.8061859 L76.3563155,33.8061859 L76.3563155,39.3381684 Z M67.3281853,34.7143332 C68.0694981,34.7143332 68.4666299,34.9992422 68.4666299,35.5749957 C68.4666299,36.1507493 67.9635962,36.4653363 67.3215665,36.4653363 C67.065019,36.4631194 66.8087614,36.4492519 66.5537783,36.4237871 L66.5537783,34.7143332 L67.3281853,34.7143332 Z M66.5537783,39.3559752 L66.5537783,37.33787 C66.8185328,37.33787 67.1693326,37.33787 67.3546608,37.33787 C67.9229548,37.3928951 68.4909039,37.2314378 68.9200593,36.8928565 C69.3492148,36.5542752 69.6001495,36.0696758 69.6116933,35.5571889 C69.6116933,34.6490416 69.0358522,33.7765079 67.2222835,33.7765079 L65.4682846,33.7765079 L65.4682846,39.3084904 L66.5537783,39.3559752 Z M60.2261445,39.3559752 L61.3116382,39.3559752 L61.3116382,34.7143332 L63.7076669,34.7143332 L63.7076669,33.8061859 L60.2261445,33.8061859 L60.2261445,39.3559752 Z M53.2366244,36.589984 C53.1790624,36.0938935 53.3561493,35.5988941 53.7247974,35.2254256 C54.0934456,34.8519572 54.619858,34.6342587 55.1759515,34.6252992 C55.7363218,34.6231051 56.2716375,34.833349 56.6498402,35.2041652 C57.0280429,35.5749813 57.2139177,36.0718427 57.1616106,36.5721772 C57.1616106,37.6643282 56.4997242,38.5190551 55.2156646,38.5190551 C54.6616685,38.5055935 54.1376597,38.2904479 53.7643058,37.9231615 C53.3909519,37.5558751 53.2004341,37.0681062 53.2366244,36.5721772 L53.2366244,36.589984 Z M50,39.3559752 L51.0854937,39.3559752 L51.0854937,36.9817338 L52.1180364,36.9817338 C52.2509599,38.395987 53.5940305,39.4700643 55.1759515,39.4272025 C56.0235339,39.45129 56.843768,39.1565997 57.4383509,38.6143769 C58.0329338,38.0721541 58.3477448,37.3317534 58.306674,36.5721772 C58.3602448,35.8096177 58.0495149,35.0626306 57.4521153,34.5178392 C56.8547158,33.9730478 56.0270696,33.6819062 55.1759515,33.7171518 C53.6345766,33.6845441 52.322514,34.7166664 52.1577496,36.0913933 L51.1119691,36.0913933 L51.1119691,33.8061859 L50,33.8061859 L50,39.3559752 Z" id="Shape" fill="#40b550" fill-rule="nonzero"></path>
                </g>
            </g>
        </g>
    </g>
</svg>
