<svg width="48" height="48" xmlns="http://www.w3.org/2000/svg"><path d="M38.306 39.335c-7.338 6.264-18.157 7.016-26.37 1.672a21.762 21.762 0 0 1-2.241-1.672L1.035 48 0 46.965l8.615-8.615C2.527 32.403.535 23.345 3.94 15.34a21.041 21.041 0 0 1 4.11-6.257L0 1.035 1.035 0l8.057 8.057c4.985-4.58 12.066-6.733 19.14-5.364A21.863 21.863 0 0 1 38.91 8.058L46.97 0 48 1.035l-8.051 8.047c3.602 3.797 5.763 8.861 5.765 14.34h-6.52c-.001-3.932-1.617-7.701-4.488-10.468-5.13-4.994-13.168-5.764-19.2-1.84-6.031 3.925-8.375 11.452-5.599 17.977 2.777 6.526 9.901 10.232 17.016 8.854 7.115-1.379 12.239-7.46 12.238-14.523h6.553c.007 5.598-2.272 10.969-6.332 14.93L48 46.965 46.97 48l-8.664-8.665z" fill="#fff"/></svg>