<?xml version="1.0" encoding="UTF-8"?>
<svg width="100%" height="100%" viewBox="0 0 111 114" version="1.1" xmlns="http://www.w3.org/2000/svg" xmlns:xlink="http://www.w3.org/1999/xlink" xml:space="preserve" xmlns:serif="http://www.serif.com/" style="fill-rule:evenodd;clip-rule:evenodd;stroke-linecap:round;stroke-miterlimit:10;"><g><path d="M84.369,16.113c-7.128,-3.867 -15.294,-6.063 -23.973,-6.063c-27.805,0 -50.346,22.541 -50.346,50.346c0,8.507 2.111,16.523 5.836,23.55" style="fill:none;stroke:#31499d;stroke-width:2px;"></path><path d="M35.308,105.352l0,0" style="fill:none;stroke:#45b54d;stroke-width:2px;stroke-linejoin:round;stroke-miterlimit:4;"></path><path d="M41.802,108.08c5.081,1.725 10.527,2.661 16.191,2.661c27.806,0 50.346,-22.542 50.346,-50.346c0,-7.197 -1.51,-14.041 -4.231,-20.233" style="fill:none;stroke:#45b54d;stroke-width:2px;stroke-linejoin:round;stroke-miterlimit:4;stroke-dasharray:0,5.87;"></path><path d="M102.579,36.987l0,0" style="fill:none;stroke:#45b54d;stroke-width:2px;stroke-linejoin:round;stroke-miterlimit:4;"></path><path d="M59.479,28.355l0,-13.701" style="fill:none;stroke:#31499d;stroke-width:1.5px;"></path><path d="M59.479,106.299l0,-13.699" style="fill:none;stroke:#45b54d;stroke-width:1.5px;"></path><path d="M27.827,60.395l-13.701,0" style="fill:none;stroke:#31499d;stroke-width:1.5px;"></path><path d="M102.558,60.395l-13.701,0" style="fill:none;stroke:#45b54d;stroke-width:1.5px;"></path><path d="M44.646,41.497l23.425,9.591l10.315,24.013l22.533,-56.366l-56.273,22.762Z" style="fill:#45b54d;"></path><path d="M64.742,54.214l-23.128,-9.545l-22.533,56.365l56.273,-22.762l-10.612,-24.058Z" style="fill:#31499d;"></path><path d="M55.462,64.095l-36.381,36.94l56.273,-22.762l-10.612,-24.059l-9.28,9.881Z" style="fill:#283474;fill-rule:nonzero;"></path><path d="M78.386,75.1l22.534,-56.366l-32.85,32.353l10.316,24.013Z" style="fill:#009345;fill-rule:nonzero;"></path><path d="M109.073,50.304c0,1.027 -0.832,1.859 -1.859,1.859c-1.026,0 -1.858,-0.832 -1.858,-1.859c0,-1.026 0.832,-1.858 1.858,-1.858c1.027,0 1.859,0.832 1.859,1.858" style="fill:#45b54d;fill-rule:nonzero;"></path><path d="M109.073,71.204c0,1.025 -0.832,1.858 -1.859,1.858c-1.026,0 -1.858,-0.833 -1.858,-1.858c0,-1.027 0.832,-1.86 1.858,-1.86c1.027,0 1.859,0.833 1.859,1.86" style="fill:#45b54d;fill-rule:nonzero;"></path><path d="M50.431,109.832c0,1.025 -0.832,1.858 -1.859,1.858c-1.027,0 -1.86,-0.833 -1.86,-1.858c0,-1.027 0.833,-1.859 1.86,-1.859c1.027,0 1.859,0.832 1.859,1.859" style="fill:#45b54d;fill-rule:nonzero;"></path><path d="M71.328,109.324c0,1.025 -0.832,1.859 -1.859,1.859c-1.027,0 -1.859,-0.834 -1.859,-1.859c0,-1.026 0.832,-1.86 1.859,-1.86c1.027,0 1.859,0.834 1.859,1.86" style="fill:#45b54d;fill-rule:nonzero;"></path><path d="M110.54,57.279c0,1.216 -0.985,2.201 -2.2,2.201c-1.217,0 -2.202,-0.985 -2.202,-2.201c0,-1.218 0.985,-2.201 2.202,-2.201c1.215,0 2.2,0.983 2.2,2.201" style="fill:#45b54d;fill-rule:nonzero;"></path><path d="M110.54,64.22c0,1.216 -0.985,2.201 -2.2,2.201c-1.217,0 -2.202,-0.985 -2.202,-2.201c0,-1.217 0.985,-2.201 2.202,-2.201c1.215,0 2.2,0.984 2.2,2.201" style="fill:#45b54d;fill-rule:nonzero;"></path><path d="M64.92,110.741c0,1.216 -0.986,2.2 -2.201,2.2c-1.216,0 -2.202,-0.984 -2.202,-2.2c0,-1.217 0.986,-2.201 2.202,-2.201c1.215,0 2.201,0.984 2.201,2.201" style="fill:#45b54d;fill-rule:nonzero;"></path><path d="M57.916,110.741c0,1.216 -0.986,2.2 -2.201,2.2c-1.216,0 -2.202,-0.984 -2.202,-2.2c0,-1.217 0.986,-2.201 2.202,-2.201c1.215,0 2.201,0.984 2.201,2.201" style="fill:#45b54d;fill-rule:nonzero;"></path></g></svg>
