<?xml version="1.0" encoding="UTF-8"?>
<svg width="24px" height="24px" viewBox="0 0 24 24" version="1.1" xmlns="http://www.w3.org/2000/svg" xmlns:xlink="http://www.w3.org/1999/xlink">
    <!-- Generator: sketchtool 49 (51002) - http://www.bohemiancoding.com/sketch -->
    <title>D760EDE1-8EE3-4531-AF21-17EF63382DD9</title>
    <desc>Created with sketchtool.</desc>
    <defs>
        <path d="M11.1618063,12.3714991 L14.643675,8.65592 C14.8142165,8.47354146 15.0475443,8.39777168 15.2705551,8.42861065 C15.4727818,8.43026277 15.6745352,8.50337713 15.829049,8.64786334 L17.3143073,10.038793 C17.5028384,10.2155409 17.5774473,10.4582228 17.5388345,10.6873591 C17.6624669,10.9817369 17.6111887,11.3393934 17.385,11.58128 L13.8735,15.32928 C13.7504048,15.4599117 13.5957551,15.5361295 13.4359741,15.5574637 L11.39475,15.9848 C11.346,15.9952 11.298,16 11.25,16 C11.05275,16 10.8615,15.9168 10.71975,15.7656 C10.5435,15.5776 10.46625,15.3072 10.51425,15.0464 L10.92375,12.8152 C10.956795,12.6366538 11.0432514,12.4837451 11.1618063,12.3714991 Z M12.3515443,13.3647864 L12.201,14.1856 L12.9755956,14.02297 L15.933555,10.8664657 L15.2725209,10.2477477 L12.3515443,13.3647864 Z M1.5,2.85098151 L1.5,12 C1.5,12.4408 1.83675,12.8 2.25,12.8 L9,12.8 C9.414,12.8 9.75,13.1584 9.75,13.6 C9.75,14.0416 9.414,14.4 9,14.4 L2.25,14.4 C1.0095,14.4 0,13.3232 0,12 L0,2.4 C0,1.0768 1.0095,0 2.25,0 L15.75,0 C16.9905,0 18,1.0768 18,2.4 L18,6.4 C18,6.8416 17.664,7.2 17.25,7.2 C16.836,7.2 16.5,6.8416 16.5,6.4 L16.5,2.85098151 L9.49425,9.4016 C9.35325,9.5336 9.17625,9.6 9,9.6 C8.82375,9.6 8.64675,9.5336 8.50575,9.4016 L1.5,2.85098151 Z M2.43810645,1.6 L9,7.736 L15.5618936,1.6 L2.43810645,1.6 Z" id="path-1"></path>
    </defs>
    <g id="Symbols" stroke="none" stroke-width="1" fill="none" fill-rule="evenodd">
        <g id="Elements-/-Icons-/-S-/-Mail">
            <g id="↳-🎨Icon-Color" transform="translate(3.000000, 4.000000)">
                <mask id="mask-2" fill="white">
                    <use xlink:href="#path-1"></use>
                </mask>
                <use id="Mask" fill="#fff" xlink:href="#path-1"></use>
                <g id="_Resources-/-ChangeColorsHere-/-Platinum" mask="url(#mask-2)" fill="#fff">
                    <g transform="translate(-7.000000, -4.000000)" id="Rectangle-4-Copy-11">
                        <rect x="0" y="0" width="32" height="25" rx="4"></rect>
                    </g>
                </g>
            </g>
        </g>
    </g>
</svg>
