<?xml version="1.0" encoding="UTF-8"?>
<svg width="24px" height="24px" viewBox="0 0 24 24" version="1.1" xmlns="http://www.w3.org/2000/svg" xmlns:xlink="http://www.w3.org/1999/xlink">
    <!-- Generator: sketchtool 49 (51002) - http://www.bohemiancoding.com/sketch -->
    <title>929FB471-E879-4718-9E04-6A172B48FE14</title>
    <desc>Created with sketchtool.</desc>
    <defs>
        <path d="M12.5,11 L11.71,11 L11.43,10.73 C12.41,9.59 13,8.11 13,6.5 C13,2.91 10.09,0 6.5,0 C2.91,0 0,2.91 0,6.5 C0,10.09 2.91,13 6.5,13 C8.11,13 9.59,12.41 10.73,11.43 L11,11.71 L11,12.5 L16,17.49 L17.49,16 L12.5,11 L12.5,11 Z M6.5,11 C4.01,11 2,8.99 2,6.5 C2,4.01 4.01,2 6.5,2 C8.99,2 11,4.01 11,6.5 C11,8.99 8.99,11 6.5,11 Z" id="path-1"></path>
    </defs>
    <g id="Symbols" stroke="none" stroke-width="1" fill="none" fill-rule="evenodd">
        <g id="Elements-/-Icons-/-S-/--Search">
            <g id="Color" transform="translate(3.000000, 3.000000)">
                <mask id="mask-2" fill="white">
                    <use xlink:href="#path-1"></use>
                </mask>
                <use id="Mask" fill="#fff" fill-rule="nonzero" xlink:href="#path-1"></use>
                <g id="_Resources-/-ChangeColorsHere-/-Silver" mask="url(#mask-2)" fill="#fff">
                    <g transform="translate(-3.000000, -3.000000)" id="↳-🎨Color">
                        <rect x="0" y="0" width="24" height="25" rx="4"></rect>
                    </g>
                </g>
            </g>
        </g>
    </g>
</svg>
