<?xml version="1.0" encoding="UTF-8"?>
<svg width="24px" height="24px" viewBox="0 0 24 24" version="1.1" xmlns="http://www.w3.org/2000/svg" xmlns:xlink="http://www.w3.org/1999/xlink">
    <!-- Generator: sketchtool 49 (51002) - http://www.bohemiancoding.com/sketch -->
    <title>4B35AB77-8C2F-40B2-A8C9-D582D30AB8D8</title>
    <desc>Created with sketchtool.</desc>
    <defs>
        <path d="M17.9045376,9.03109761 C17.8827416,8.98535874 17.8624228,8.94741881 17.8435483,8.91702211 C17.5312494,8.36933829 16.9344545,7.69709516 16.0535246,6.90010093 L16.0255903,6.87290053 C15.6069049,6.49260627 15.3537242,6.24307212 15.2476988,6.11531652 C15.0537019,5.87195121 15.0102413,5.62561335 15.1162667,5.37601528 C15.1911738,5.18743433 15.4725514,4.78917694 15.959743,4.18069974 C16.2160093,3.85822632 16.4189675,3.59977453 16.5688474,3.40505671 C17.649814,2.00572215 18.1184594,1.11152883 17.974685,0.722125153 L17.9188493,0.631126855 C17.7313518,0.480517799 17.4578769,0.530827361 17.4578769,0.524442777 C17.344143,0.521374341 17.1564239,0.521374341 16.8947196,0.524442777 L14.078933,0.524442777 C14.0497842,0.514385126 14.0145162,0.516513321 13.9731291,0.530827361 L13.9358397,0.558283468 C13.9045901,0.57643838 13.8702221,0.608369289 13.8327029,0.654012271 C13.7953807,0.699495439 13.7641639,0.752873436 13.7392168,0.813698782 C13.4453656,1.5498357 13.1112707,2.23425669 12.7363085,2.86692979 C12.5051206,3.24418757 12.2928072,3.5711358 12.0989088,3.84796623 C11.9052729,4.12470078 11.742821,4.32859195 11.6117172,4.45928813 C11.4804164,4.59011217 11.3619174,4.69491843 11.2554981,4.77409047 C11.1492429,4.85329446 11.0681319,4.88675959 11.0119679,4.87451781 C10.9556727,4.86227603 10.90266,4.85013014 10.8524703,4.83798425 C10.7650568,4.78319988 10.6947452,4.70869443 10.6417325,4.61440395 C10.5884901,4.52011348 10.5526449,4.40143534 10.5339018,4.25846541 C10.515257,4.11539959 10.5042278,3.99234253 10.5010766,3.88887871 C10.4981551,3.78554274 10.4995009,3.63937653 10.5058362,3.45079558 C10.5123356,3.26211874 10.515257,3.13445903 10.515257,3.06752878 C10.515257,2.83630936 10.5198854,2.58536884 10.5291749,2.31464331 C10.5386286,2.04391778 10.5462769,1.82941495 10.5526778,1.6713905 C10.5590459,1.51320625 10.5620001,1.34584865 10.5620001,1.16941359 C10.5620001,0.992978534 10.5509709,0.854611259 10.5291749,0.754183914 C10.5076416,0.65388442 10.4745866,0.55652551 10.4310276,0.462139148 C10.3872059,0.367848674 10.3230655,0.294909399 10.2389017,0.243129545 C10.1545738,0.191413617 10.0497301,0.150373289 9.92496149,0.119880709 C9.59378805,0.0469094706 9.17208272,0.007435323 8.65964854,0.00129845148 C7.49760368,-0.0108474401 6.75092888,0.0622196865 6.41978827,0.220403943 C6.28858595,0.287238309 6.16985721,0.378556236 6.06370052,0.494070057 C5.95120856,0.62796253 5.93551811,0.701029657 6.01672766,0.713047697 C6.39165708,0.767736172 6.65708164,0.898560209 6.81329676,1.10539196 L6.86959197,1.21499265 C6.91338079,1.29406879 6.95710395,1.43406618 7.00085994,1.63479301 C7.04455028,1.83551985 7.07274713,2.05756593 7.08515505,2.30080339 C7.11633899,2.74499143 7.11633899,3.12522176 7.08515505,3.44152635 C7.05387264,3.75795879 7.02432996,4.00429664 6.99613311,4.1807317 C6.96793627,4.35716676 6.92578871,4.50013669 6.86959197,4.60960952 C6.81329676,4.71911433 6.77584321,4.78604458 6.75706719,4.81033636 C6.738324,4.83462815 6.72269921,4.84993836 6.71029128,4.85594738 C6.62908174,4.88624819 6.5446225,4.90168625 6.457209,4.90168625 C6.36966419,4.90168625 6.2635075,4.85904778 6.13857479,4.77383476 C6.01367491,4.68862174 5.8840482,4.57157371 5.74969466,4.42249887 C5.61534112,4.27339207 5.46382001,4.0650261 5.29506566,3.79736901 C5.12644261,3.52971191 4.9514843,3.21337536 4.7702892,2.84835936 L4.62037652,2.58364285 C4.52666058,2.41334466 4.3986423,2.1653767 4.23619039,1.83996269 C4.07364001,1.51442084 3.92996411,1.19952262 3.80506423,0.895331959 C3.7551371,0.767576357 3.68013152,0.670313336 3.58017879,0.603383081 L3.53327158,0.575926974 C3.50208764,0.551635191 3.45202922,0.525841153 3.3833589,0.498353082 C3.31459011,0.470896975 3.24283422,0.451207845 3.16779582,0.439093916 L0.599913335,0.457248828 C0.337508695,0.457248828 0.159464816,0.51513359 0.0657160482,0.6307433 L0.0281968458,0.685431775 C0.00945365728,0.715892393 0,0.764539885 0,0.831502102 C0,0.898432358 0.0187431886,0.98057694 0.0562623909,1.07783996 C0.431126162,1.93572346 0.838782307,2.76308242 1.27923083,3.56004468 C1.71967934,4.35700694 2.10242116,4.99898124 2.42722651,5.48539223 C2.7520975,5.97215482 3.08323811,6.43155718 3.42064833,6.86337559 C3.75805855,7.29535381 3.9814012,7.57218425 4.09067629,7.69380298 C4.20008267,7.81564545 4.28601904,7.90673964 4.3484854,7.96756499 L4.58282449,8.18654263 C4.73277,8.33258099 4.95296144,8.50748183 5.24349727,8.71124514 C5.53409876,8.9151363 5.85581853,9.11586314 6.20882072,9.31374529 C6.56188856,9.5113078 6.97263027,9.67252853 7.44127564,9.7972157 C7.90985535,9.92203071 8.36592866,9.97211654 8.80956123,9.9479526 L9.88734381,9.9479526 C10.1059268,9.92957395 10.2715299,9.8626437 10.3840875,9.74712988 L10.421377,9.70139101 C10.4464554,9.66508118 10.4699254,9.60866671 10.4915901,9.53275489 C10.5135173,9.45671522 10.5244153,9.37294053 10.5244153,9.28181438 C10.5180144,9.02026219 10.5384645,8.78453601 10.5852075,8.57466779 C10.6319178,8.36486349 10.6851603,8.20667924 10.7447052,8.10014698 C10.8042173,7.99371062 10.8713776,7.90389494 10.9461206,7.83108352 C11.0210277,7.75811228 11.0744015,7.71390763 11.1057167,7.6986933 C11.136835,7.68338309 11.1616837,7.67299515 11.1804269,7.66676239 C11.3303724,7.6181149 11.5068406,7.66522817 11.7100943,7.80832595 C11.9131838,7.95129588 12.1036684,8.12782683 12.2818436,8.33763112 C12.4599203,8.5476272 12.6738749,8.78322553 12.9237404,9.04477772 C13.1737699,9.30642579 13.3923857,9.50091987 13.579752,9.62886725 L13.7671182,9.73837205 C13.8922478,9.81143918 14.0546998,9.87836943 14.2546709,9.93919478 C14.4542809,9.99998816 14.6291736,10.0152025 14.7793488,9.9848058 L17.1784442,9.94836812 C17.4157375,9.94836812 17.6003793,9.91010856 17.7313518,9.83419674 C17.862587,9.75815707 17.9405468,9.67438238 17.9656909,9.58325623 C17.9907694,9.49203419 17.9921152,9.38853841 17.9704506,9.27283281 C17.9482279,9.15741488 17.9263335,9.07670863 17.9045376,9.03109761 Z" id="path-1"></path>
    </defs>
    <g id="Symbols" stroke="none" stroke-width="1" fill="none" fill-rule="evenodd">
        <g id="Elements-/-Icons-/-S-/--VK">
            <g id="Color" transform="translate(3.000000, 7.000000)">
                <mask id="mask-2" fill="white">
                    <use xlink:href="#path-1"></use>
                </mask>
                <use id="Shape-Copy" fill="#fff" fill-rule="nonzero" xlink:href="#path-1"></use>
                <g id="_Resources-/-ChangeColorsHere-/-Silver" mask="url(#mask-2)" fill="#fff">
                    <g transform="translate(-3.000000, -7.000000)" id="↳-🎨Color">
                        <rect x="0" y="0" width="24" height="24" rx="4"></rect>
                    </g>
                </g>
            </g>
        </g>
    </g>
</svg>
