<?xml version="1.0" encoding="UTF-8"?>
<svg width="24px" height="24px" viewBox="0 0 24 24" version="1.1" xmlns="http://www.w3.org/2000/svg" xmlns:xlink="http://www.w3.org/1999/xlink">
    <!-- Generator: sketchtool 49 (51002) - http://www.bohemiancoding.com/sketch -->
    <title>884B6631-A7AF-416C-9AE1-457D866C852D</title>
    <desc>Created with sketchtool.</desc>
    <defs>
        <path d="M7.2,8.57140841 L7.2,3.42845048 L11.876281,6.00007056 L7.2,8.57140841 Z M17.6238054,1.87368149 C17.4168169,1.13623161 16.8069638,0.555274639 16.0324978,0.358141559 C14.628769,0 8.99992592,0 8.99992592,0 C8.99992592,0 3.37123102,0 1.96750216,0.358141559 C1.19303618,0.555274639 0.583183109,1.13623161 0.376194592,1.87368149 C0,3.21071508 0,5.99992944 0,5.99992944 C0,5.99992944 0,8.78928492 0.376194592,10.1261774 C0.583183109,10.8636273 1.19303618,11.4447254 1.96750216,11.6417173 C3.37123102,12 8.99992592,12 8.99992592,12 C8.99992592,12 14.628769,12 16.0324978,11.6417173 C16.8069638,11.4447254 17.4168169,10.8636273 17.6238054,10.1261774 C18,8.78928492 18,5.99992944 18,5.99992944 C18,5.99992944 18,3.21071508 17.6238054,1.87368149 Z" id="path-1"></path>
    </defs>
    <g id="Symbols" stroke="none" stroke-width="1" fill="none" fill-rule="evenodd">
        <g id="Elements-/-Icons-/-S-/--YouTube">
            <g id="Color" transform="translate(3.000000, 6.000000)">
                <mask id="mask-2" fill="white">
                    <use xlink:href="#path-1"></use>
                </mask>
                <use id="Fill-1" fill="#fff" xlink:href="#path-1"></use>
                <g id="_Resources-/-ChangeColorsHere-/-Silver" mask="url(#mask-2)" fill="#fff">
                    <g transform="translate(-3.000000, -6.000000)" id="↳-🎨Color">
                        <rect x="0" y="0" width="24" height="24" rx="4"></rect>
                    </g>
                </g>
            </g>
        </g>
    </g>
</svg>
